<?xml version="1.0" encoding="UTF-8" standalone="no"?>
<!DOCTYPE svg PUBLIC "-//W3C//DTD SVG 20010904//EN"
              "http://www.w3.org/TR/2001/REC-SVG-20010904/DTD/svg10.dtd">

<svg xmlns="http://www.w3.org/2000/svg"
     width="512" height="512"
     viewBox="0 10 700 700">
  <path id="White"
        fill="white" stroke="none" stroke-width="1"
        d="M 234.75,28.25
           C 234.75,28.25 473.25,27.50 473.25,27.50
             473.25,27.50 687.00,689.00 687.00,689.00
             687.00,689.00 24.00,689.00 24.00,689.00
             24.00,689.00 234.75,28.25 234.75,28.25 Z
           M 465.00,41.00
           C 465.00,41.00 243.75,42.50 243.75,42.50
             243.75,42.50 42.00,674.00 42.00,674.00
             42.00,674.00 162.75,674.38 162.75,674.38
             162.75,674.38 254.34,638.19 254.34,638.19
             254.34,638.19 78.00,638.00 78.00,638.00
             78.00,638.00 82.12,622.25 82.12,622.25
             82.12,622.25 291.38,622.34 291.38,622.34
             298.12,619.73 301.70,613.81 305.61,607.94
             321.19,584.54 314.54,561.95 311.16,536.00
             309.81,525.67 308.66,502.45 301.32,495.46
             298.12,492.42 292.41,489.22 292.41,489.22
             292.41,489.22 280.78,502.16 280.78,502.16
             280.78,502.16 289.41,508.44 289.41,508.44
             294.18,519.81 294.87,541.44 297.37,557.75
             298.30,566.41 300.73,578.09 297.37,586.54
             292.78,600.02 284.81,609.69 270.94,614.56
             270.94,614.56 251.62,593.38 251.62,593.38
             251.62,593.38 93.00,593.00 93.00,593.00
             93.00,593.00 97.50,578.00 97.50,578.00
             97.50,578.00 237.00,578.00 237.00,578.00
             237.00,578.00 228.00,545.00 228.00,545.00
             228.00,545.00 111.00,545.00 111.00,545.00
             111.00,545.00 114.00,530.00 114.00,530.00
             114.00,530.00 225.00,530.00 225.00,530.00
             219.87,502.77 206.03,456.90 207.97,431.00
             211.53,383.44 218.02,358.11 237.38,315.12
             242.14,304.54 258.18,276.84 270.94,260.94
             272.81,258.60 273.38,255.69 274.12,252.69
             276.23,248.95 282.00,245.19 285.56,243.88
             291.75,243.12 296.37,246.78 301.88,246.12
             314.44,242.75 322.50,238.25 351.56,246.12
             362.44,248.94 372.00,261.12 372.00,261.12
             372.00,261.12 399.00,265.62 414.94,274.44
             414.00,282.31 411.00,291.50 402.56,301.81
             393.05,307.15 375.52,299.51 364.28,309.95
             355.92,317.72 350.33,344.43 348.00,356.00
             348.00,356.00 364.88,359.56 364.88,359.56
             364.88,359.56 369.94,342.12 369.94,342.12
             426.29,354.98 517.78,390.45 545.25,444.12
             557.05,467.19 555.00,504.39 555.00,530.00
             555.00,530.00 600.00,530.00 600.00,530.00
             600.00,530.00 603.00,545.00 603.00,545.00
             603.00,545.00 553.83,544.87 553.83,544.87
             553.83,544.87 553.23,561.96 550.75,578.00
             550.75,578.00 613.50,578.00 613.50,578.00
             613.50,578.00 618.00,593.00 618.00,593.00
             618.00,593.00 548.48,593.00 548.48,593.00
             548.48,593.00 548.47,593.64 543.38,622.00
             543.38,622.00 628.12,622.00 628.12,622.00
             628.12,622.00 632.00,638.00 632.00,638.00
             632.00,638.00 540.25,638.00 540.25,638.00
             540.25,638.00 538.43,647.91 536.22,655.09
             536.22,655.09 561.52,666.17 579.13,674.39
             579.13,674.39 633.13,674.39 665.22,674.39
             665.22,674.39 465.00,41.00 465.00,41.00 Z
           M 384.00,473.00
           C 384.00,473.00 385.13,507.21 382.72,524.00
             376.51,567.27 370.68,577.57 357.00,617.00
             362.66,616.80 375.75,616.62 375.75,616.62
             389.44,586.44 393.99,565.29 396.00,551.00
             396.00,551.00 431.06,565.62 431.06,565.62
             437.76,578.45 437.25,588.31 437.25,596.56
             434.85,606.71 427.33,612.94 423.00,623.00
             423.00,623.00 460.31,633.69 460.31,633.69
             452.06,598.25 450.19,563.56 444.94,554.56
             444.94,554.56 399.00,533.00 399.00,533.00
             403.50,513.12 401.44,475.06 401.44,475.06
             401.44,475.06 384.00,473.00 384.00,473.00 Z" />

  <path id="Blue"
        fill="#00558b" stroke="none" stroke-width="1"
        d="M 465.00,41.00
           C 465.00,41.00 243.75,42.50 243.75,42.50
             243.75,42.50 42.00,674.00 42.00,674.00
             42.00,674.00 162.75,674.38 162.75,674.38
             162.75,674.38 254.34,638.19 254.34,638.19
             254.34,638.19 78.00,638.00 78.00,638.00
             78.00,638.00 82.12,622.25 82.12,622.25
             82.12,622.25 291.38,622.34 291.38,622.34
             298.12,619.73 301.70,613.81 305.61,607.94
             321.19,584.54 314.54,561.95 311.16,536.00
             309.81,525.67 308.66,502.45 301.32,495.46
             298.12,492.42 292.41,489.22 292.41,489.22
             292.41,489.22 280.78,502.16 280.78,502.16
             280.78,502.16 289.41,508.44 289.41,508.44
             294.18,519.81 294.87,541.44 297.37,557.75
             298.30,566.41 300.73,578.09 297.37,586.54
             292.78,600.02 284.81,609.69 270.94,614.56
             270.94,614.56 251.62,593.38 251.62,593.38
             251.62,593.38 93.00,593.00 93.00,593.00
             93.00,593.00 97.50,578.00 97.50,578.00
             97.50,578.00 237.00,578.00 237.00,578.00
             237.00,578.00 228.00,545.00 228.00,545.00
             228.00,545.00 111.00,545.00 111.00,545.00
             111.00,545.00 114.00,530.00 114.00,530.00
             114.00,530.00 225.00,530.00 225.00,530.00
             219.87,502.77 206.03,456.90 207.97,431.00
             211.53,383.44 218.02,358.11 237.38,315.12
             242.14,304.54 258.18,276.84 270.94,260.94
             272.81,258.60 273.38,255.69 274.12,252.69
             276.23,248.95 282.00,245.19 285.56,243.88
             291.75,243.12 296.37,246.78 301.88,246.12
             314.44,242.75 322.50,238.25 351.56,246.12
             362.44,248.94 372.00,261.12 372.00,261.12
             372.00,261.12 399.00,265.62 414.94,274.44
             414.00,282.31 411.00,291.50 402.56,301.81
             393.05,307.15 375.52,299.51 364.28,309.95
             355.92,317.72 350.33,344.43 348.00,356.00
             348.00,356.00 364.88,359.56 364.88,359.56
             364.88,359.56 369.94,342.12 369.94,342.12
             426.29,354.98 517.78,390.45 545.25,444.12
             557.05,467.19 555.00,504.39 555.00,530.00
             555.00,530.00 600.00,530.00 600.00,530.00
             600.00,530.00 603.00,545.00 603.00,545.00
             603.00,545.00 553.83,544.87 553.83,544.87
             553.83,544.87 553.23,561.96 550.75,578.00
             550.75,578.00 613.50,578.00 613.50,578.00
             613.50,578.00 618.00,593.00 618.00,593.00
             618.00,593.00 548.48,593.00 548.48,593.00
             548.48,593.00 548.47,593.64 543.38,622.00
             543.38,622.00 628.12,622.00 628.12,622.00
             628.12,622.00 632.00,638.00 632.00,638.00
             632.00,638.00 540.25,638.00 540.25,638.00
             540.25,638.00 538.43,647.91 536.22,655.09
             536.22,655.09 561.52,666.17 579.13,674.39
             579.13,674.39 633.13,674.39 665.22,674.39
             665.22,674.39 465.00,41.00 465.00,41.00 Z
           M 384.00,473.00
           C 384.00,473.00 385.13,507.21 382.72,524.00
             376.51,567.27 370.68,577.57 357.00,617.00
             362.66,616.80 375.75,616.62 375.75,616.62
             389.44,586.44 393.99,565.29 396.00,551.00
             396.00,551.00 431.06,565.62 431.06,565.62
             437.76,578.45 437.25,588.31 437.25,596.56
             434.85,606.71 427.33,612.94 423.00,623.00
             423.00,623.00 460.31,633.69 460.31,633.69
             452.06,598.25 450.19,563.56 444.94,554.56
             444.94,554.56 399.00,533.00 399.00,533.00
             403.50,513.12 401.44,475.06 401.44,475.06
             401.44,475.06 384.00,473.00 384.00,473.00 Z" />
</svg>
